<?xml version="1.0" standalone="no"?>
<!DOCTYPE svg PUBLIC "-//W3C//DTD SVG 20010904//EN"
 "http://www.w3.org/TR/2001/REC-SVG-20010904/DTD/svg10.dtd">
<svg version="1.0" xmlns="http://www.w3.org/2000/svg"
 width="512.000000pt" height="512.000000pt" viewBox="0 0 512.000000 512.000000"
 preserveAspectRatio="xMidYMid meet">
<metadata>
Created by potrace 1.11, written by Peter Selinger 2001-2013
</metadata>
<g transform="translate(0.000000,512.000000) scale(0.100000,-0.100000)"
fill="#000000" stroke="none">
<path d="M1866 5028 c-45 -132 -161 -398 -238 -549 -47 -92 -93 -190 -104
-218 l-18 -51 -128 0 c-130 0 -340 18 -522 46 -54 8 -100 13 -101 12 -2 -2 12
-70 31 -153 32 -144 66 -332 79 -443 l6 -52 -45 -19 c-24 -11 -107 -55 -183
-99 -151 -87 -255 -136 -469 -221 l-141 -56 54 -60 c167 -184 271 -307 381
-452 68 -89 127 -165 132 -168 5 -3 -38 -79 -95 -170 -104 -165 -191 -285
-324 -445 -39 -47 -71 -87 -71 -91 0 -3 33 -15 72 -28 142 -44 385 -134 488
-182 l105 -48 3 -123 c4 -141 -8 -277 -44 -497 -13 -85 -22 -156 -19 -159 2
-3 40 2 82 11 172 37 377 68 538 82 94 9 182 18 197 21 24 5 28 2 34 -23 9
-34 66 -174 124 -303 24 -52 77 -196 119 -320 l76 -225 100 78 c140 109 312
225 435 293 58 32 131 75 163 96 l59 38 71 -51 c92 -66 214 -168 345 -287 57
-52 105 -93 106 -91 2 2 29 67 61 144 72 175 138 308 223 453 l67 114 55 -7
c30 -3 148 -12 262 -20 191 -13 585 -66 610 -81 12 -8 14 -20 -31 220 -30 166
-40 251 -61 531 -6 77 -13 152 -16 166 -5 25 1 29 139 96 131 64 520 223 545
223 30 0 14 27 -66 117 -159 177 -342 421 -342 455 0 28 229 319 392 499 43
48 78 89 78 92 0 2 -34 16 -75 31 -163 58 -387 158 -540 240 -88 47 -175 92
-193 98 -30 11 -33 16 -28 41 3 16 13 99 21 185 18 180 35 288 76 491 17 79
28 145 25 148 -2 3 -62 -5 -133 -16 -213 -33 -330 -44 -492 -45 l-155 -1 -43
80 c-56 105 -112 239 -182 434 l-57 159 -54 -45 c-127 -106 -305 -237 -443
-327 l-148 -97 -46 40 c-25 22 -100 75 -167 118 -178 113 -308 212 -494 374
-30 27 -58 49 -61 49 -4 0 -15 -24 -25 -52z m888 -953 c17 -22 62 -78 101
-124 48 -58 66 -86 56 -89 -8 -3 -49 -22 -91 -43 -90 -45 -195 -148 -250 -243
l-33 -58 -34 65 c-64 121 -147 206 -279 283 -17 10 -8 22 87 120 57 60 142
159 188 221 l84 112 70 -102 c38 -56 84 -120 101 -142z m927 -566 c72 -15 271
-40 420 -51 l35 -3 -62 -140 c-34 -77 -84 -202 -109 -277 -26 -76 -50 -138
-55 -138 -4 0 -25 13 -47 29 -94 68 -209 102 -350 102 -51 0 -93 2 -93 5 0 2
13 30 29 62 64 129 76 177 76 314 l0 128 35 -6 c19 -3 74 -14 121 -25z m-2145
-81 c1 -116 27 -209 90 -328 19 -35 34 -67 34 -70 0 -3 -44 -6 -98 -6 -55 -1
-125 -9 -161 -19 -66 -17 -175 -67 -186 -85 -14 -22 -24 -5 -60 98 -43 121
-125 323 -161 394 l-24 48 40 0 c75 0 335 31 415 50 120 27 110 35 111 -82z
m2440 -1365 c36 -133 112 -341 153 -421 l20 -39 -147 -7 c-81 -4 -205 -16
-276 -26 -189 -29 -180 -31 -172 33 13 100 -36 262 -113 377 l-39 60 52 0
c141 0 329 55 414 121 26 21 52 38 58 38 7 1 29 -61 50 -136z m-2674 32 c69
-31 190 -55 278 -55 38 0 70 -3 70 -7 0 -5 -9 -21 -21 -38 -71 -105 -113 -231
-114 -342 0 -96 14 -89 -136 -69 -57 8 -168 18 -246 22 l-142 7 20 39 c40 78
117 286 144 388 15 58 29 108 32 113 2 4 17 -2 33 -13 16 -11 53 -31 82 -45z
m1350 -722 c62 -79 113 -122 188 -162 33 -18 60 -35 60 -37 0 -3 -33 -45 -73
-92 -74 -88 -170 -218 -224 -304 l-30 -47 -81 108 c-44 59 -133 163 -197 231
l-116 123 53 30 c29 17 70 44 91 61 51 40 137 147 177 219 l33 58 35 -63 c19
-35 57 -91 84 -125z"/>
</g>
</svg>
